<svg width="761" height="466" viewBox="0 0 761 466" fill="none" xmlns="http://www.w3.org/2000/svg">
<path d="M375.047 181.035C288.159 228.008 183.923 98.5325 67.3224 131.989C-51.0789 165.445 11.4982 282.889 67.3224 353.181C123.147 423.473 319.248 411.095 444.403 456.379C569.557 501.663 694.803 375.713 738.563 315.153C794.488 237.756 738.563 120.648 651.225 98.5325C594.2 84.0924 461.935 134.061 375.047 181.035Z" fill="#065F46" fill-opacity="0.2"/>
<path d="M206.97 326.952C206.673 326.044 204.423 326.443 204.206 325.631C203.991 324.822 206.151 324.143 207.807 321.863C208.106 321.451 209.988 318.859 209.266 317.769C207.898 315.703 198.377 320.849 196.092 317.961C195.59 317.328 195.384 316.239 193.889 314.214C193.295 313.409 192.914 313.02 192.458 313.031C191.811 313.048 191.58 313.856 190.564 315.32C189.04 317.516 188.49 317.24 187.486 319.039C186.741 320.375 186.653 321.228 186.115 321.279C185.355 321.35 185.041 319.687 184.111 319.622C183.163 319.557 182.214 321.2 181.744 322.483C180.861 324.892 181.408 326.733 181.529 328.568C181.661 330.563 181.351 333.482 179.183 337.228L158.733 369.789C163.125 363.151 175.592 345.05 180.615 338.411C182.065 336.495 183.623 334.57 186.021 334.208C188.33 333.859 191.14 335.001 195.061 334.935C195.519 334.927 196.794 334.889 197.104 334.214C197.36 333.656 196.724 333.17 196.955 332.646C197.266 331.942 198.663 332.244 200.567 331.777C201.91 331.447 202.822 330.903 203.606 330.434C203.843 330.293 207.366 328.161 206.97 326.952H206.97Z" fill="#EBEDF0"/>
<path d="M153.407 334.554C152.875 334.437 152.422 335.657 151.961 335.528C151.501 335.4 151.791 334.145 151.149 332.675C151.033 332.41 150.303 330.739 149.56 330.778C148.15 330.853 147.93 337.008 145.853 337.296C145.397 337.359 144.803 337.146 143.377 337.294C142.81 337.354 142.509 337.428 142.383 337.655C142.204 337.977 142.535 338.324 142.961 339.245C143.599 340.626 143.305 340.816 143.899 341.827C144.34 342.578 144.734 342.868 144.603 343.146C144.419 343.539 143.512 343.214 143.212 343.651C142.906 344.097 143.439 345.036 143.934 345.637C144.862 346.765 145.924 347.029 146.86 347.499C147.878 348.009 149.222 349.003 150.437 351.148L160.528 370.573C158.535 366.503 153.242 355.166 151.431 350.787C150.908 349.523 150.412 348.203 150.926 346.922C151.421 345.689 152.793 344.641 153.892 342.698C154.02 342.471 154.369 341.835 154.127 341.488C153.927 341.202 153.505 341.374 153.314 341.109C153.058 340.753 153.609 340.155 153.929 339.086C154.155 338.333 154.15 337.728 154.147 337.209C154.146 337.052 154.115 334.709 153.407 334.554V334.554L153.407 334.554Z" fill="#EBEDF0"/>
<path d="M163.474 339.293L163.791 336.367L163.986 336.183C164.886 335.333 165.449 334.432 165.66 333.505C165.694 333.358 165.72 333.209 165.746 333.057C165.852 332.456 165.983 331.708 166.561 330.931C166.885 330.498 167.742 329.519 168.626 329.861C168.865 329.95 169.026 330.105 169.138 330.269C169.166 330.24 169.195 330.212 169.225 330.181C169.607 329.811 169.874 329.675 170.132 329.544C170.329 329.443 170.533 329.34 170.879 329.064C171.03 328.942 171.152 328.834 171.254 328.742C171.564 328.465 171.961 328.141 172.504 328.27C173.08 328.427 173.278 328.976 173.409 329.339C173.643 329.988 173.715 330.434 173.763 330.73C173.78 330.838 173.8 330.959 173.815 330.999C173.941 331.316 175.524 331.398 176.119 331.433C177.458 331.505 178.616 331.568 178.894 332.484C179.094 333.139 178.678 333.854 177.621 334.665C177.291 334.917 176.962 335.091 176.675 335.221C176.852 335.388 176.992 335.614 177.001 335.923C177.02 336.654 176.27 337.215 174.772 337.593C174.399 337.688 173.898 337.814 173.243 337.782C172.934 337.767 172.664 337.719 172.433 337.675C172.399 337.806 172.336 337.943 172.222 338.072C171.889 338.454 171.35 338.551 170.619 338.336C169.812 338.111 169.174 337.805 168.611 337.537C168.12 337.303 167.696 337.103 167.34 337.048C166.679 336.956 166.062 337.364 165.324 337.907L163.474 339.293H163.474L163.474 339.293Z" fill="#EBEDF0"/>
<path d="M168.753 322.625L165.84 323.06L165.613 322.919C164.561 322.264 163.547 321.949 162.596 321.98C162.445 321.984 162.294 321.997 162.14 322.01C161.531 322.061 160.774 322.124 159.875 321.761C159.374 321.558 158.21 320.978 158.316 320.037C158.342 319.783 158.451 319.589 158.581 319.439C158.546 319.419 158.512 319.398 158.474 319.376C158.018 319.101 157.819 318.878 157.627 318.662C157.48 318.497 157.328 318.326 156.973 318.062C156.817 317.946 156.681 317.856 156.566 317.781C156.22 317.551 155.806 317.25 155.792 316.692C155.798 316.095 156.28 315.765 156.598 315.546C157.166 315.155 157.58 314.973 157.854 314.852C157.954 314.808 158.067 314.757 158.101 314.733C158.377 314.53 158.055 312.98 157.937 312.395C157.668 311.083 157.435 309.947 158.251 309.446C158.834 309.086 159.632 309.308 160.685 310.124C161.012 310.378 161.264 310.652 161.463 310.897C161.579 310.684 161.763 310.491 162.06 310.404C162.762 310.2 163.495 310.783 164.241 312.135C164.428 312.471 164.677 312.923 164.812 313.565C164.876 313.867 164.898 314.141 164.914 314.375C165.05 314.375 165.198 314.401 165.352 314.478C165.806 314.704 166.037 315.2 166.014 315.961C166.001 316.798 165.867 317.492 165.75 318.104C165.648 318.639 165.562 319.099 165.599 319.457C165.677 320.12 166.229 320.613 166.942 321.188L168.753 322.625H168.753L168.753 322.625Z" fill="#EBEDF0"/>
<path d="M169.146 313.882L169.463 310.956L169.658 310.772C170.558 309.922 171.121 309.021 171.332 308.094C171.366 307.947 171.392 307.798 171.418 307.646C171.524 307.044 171.654 306.296 172.233 305.519C172.557 305.087 173.414 304.108 174.298 304.45C174.537 304.539 174.698 304.694 174.81 304.858C174.838 304.829 174.867 304.801 174.897 304.77C175.279 304.399 175.546 304.264 175.803 304.133C176.001 304.032 176.205 303.929 176.551 303.652C176.702 303.531 176.824 303.422 176.926 303.331C177.236 303.054 177.633 302.73 178.176 302.858C178.752 303.016 178.95 303.565 179.081 303.928C179.315 304.577 179.387 305.023 179.434 305.318C179.452 305.426 179.472 305.548 179.487 305.588C179.613 305.905 181.195 305.987 181.791 306.022C183.13 306.094 184.288 306.157 184.566 307.073C184.766 307.728 184.35 308.443 183.293 309.254C182.963 309.506 182.634 309.68 182.347 309.81C182.524 309.977 182.664 310.203 182.673 310.512C182.692 311.243 181.942 311.804 180.444 312.182C180.071 312.277 179.57 312.402 178.915 312.371C178.606 312.355 178.336 312.308 178.105 312.264C178.071 312.395 178.008 312.532 177.894 312.661C177.561 313.043 177.022 313.14 176.291 312.925C175.484 312.7 174.846 312.394 174.283 312.126C173.792 311.892 173.368 311.691 173.012 311.637C172.351 311.544 171.734 311.953 170.996 312.496L169.146 313.882H169.146H169.146Z" fill="#EBEDF0"/>
<path d="M159.7 369.955L159.185 369.447L159.194 368.724L159.185 369.447L158.469 369.371C158.472 369.304 158.467 369.146 158.462 368.901C158.435 367.554 158.349 363.457 158.92 357.162C159.319 352.767 159.985 348.306 160.9 343.901C161.817 339.488 162.768 336.205 163.532 333.567C164.109 331.576 164.691 329.689 165.259 327.85C166.776 322.937 168.208 318.297 169.094 313.004C169.293 311.822 169.705 309.363 168.861 306.46C168.372 304.776 167.533 303.191 166.369 301.751L167.496 300.841C168.781 302.433 169.708 304.188 170.251 306.058C171.187 309.276 170.738 311.956 170.522 313.244C169.62 318.631 168.174 323.316 166.642 328.276C166.077 330.108 165.497 331.987 164.923 333.969C164.165 336.583 163.222 339.838 162.318 344.193C161.413 348.546 160.755 352.953 160.361 357.292C159.798 363.508 159.882 367.544 159.91 368.87C159.924 369.578 159.927 369.727 159.7 369.955L159.7 369.955Z" fill="#EBEDF0"/>
<path d="M163.278 303.416C163.22 303.403 163.162 303.389 163.103 303.372C161.915 303.039 160.961 302.071 160.269 300.495C159.945 299.754 159.868 298.975 159.716 297.42C159.692 297.18 159.586 295.967 159.716 294.359C159.801 293.308 159.914 292.886 160.2 292.555C160.517 292.186 160.945 291.974 161.398 291.868C161.41 291.729 161.456 291.593 161.546 291.464C161.918 290.929 162.541 291.149 162.879 291.263C163.049 291.324 163.261 291.402 163.5 291.442C163.875 291.507 164.099 291.441 164.438 291.343C164.763 291.249 165.166 291.132 165.723 291.142C166.824 291.157 167.638 291.651 167.907 291.814C169.321 292.663 169.809 294.018 170.374 295.587C170.487 295.901 170.859 297.038 170.946 298.502C171.009 299.557 170.87 299.99 170.711 300.299C170.387 300.934 169.891 301.229 168.658 301.848C167.371 302.498 166.725 302.823 166.195 302.99C164.962 303.376 164.188 303.619 163.278 303.416V303.416Z" fill="#EBEDF0"/>
<path d="M326.798 214.495C330.641 211.251 329.621 203.728 324.518 197.692C322.285 195.05 319.64 193.132 317.049 192.081L314.071 188.647L275.615 140.495C275.615 140.495 254.319 92.5948 248.032 87.4199C241.746 82.245 234.35 84.9392 234.35 84.9392L228.579 92.0742L264.54 158.955L301.344 195.968L306.312 201.145C306.916 203.873 308.367 206.8 310.601 209.442C315.703 215.478 322.954 217.74 326.798 214.495Z" fill="#FCD3D3"/>
<path d="M254.207 96.3262L263.844 110.45L277.679 130.912L252.82 139.505L230.872 101.869L254.207 96.3262Z" fill="#E9E9EB"/>
<path d="M648 368.653H98V370.329H648V368.653Z" fill="#3F3D56"/>
<path d="M487.371 252.179H443.521V237.299C443.521 213.363 462.967 193.93 486.919 193.93H487.371V252.179Z" fill="#2F2E41"/>
<path d="M453.293 244.386L460.561 220.615L479.206 219.682L487.371 252.179L453.293 244.386Z" fill="#FCD3D3"/>
<path opacity="0.1" d="M453.293 244.386L460.561 220.615L479.206 219.682L487.371 252.179L453.293 244.386Z" fill="black"/>
<path d="M470.258 234.544C482.367 234.544 492.183 224.734 492.183 212.634C492.183 200.533 482.367 190.724 470.258 190.724C458.15 190.724 448.333 200.533 448.333 212.634C448.333 224.734 458.15 234.544 470.258 234.544Z" fill="#FCD3D3"/>
<path d="M423.789 335.099L417.986 340.898C417.986 340.898 386.978 320.114 375.085 327.865C363.193 335.617 362.675 350.626 376.658 358.907C390.642 367.188 426.378 387.373 426.378 387.373C426.378 387.373 474.027 395.654 506.137 370.294C538.248 344.933 544.204 346.227 538.507 332.77C532.81 319.313 520.38 322.419 520.38 322.419L496.556 336.393L486.716 334.323L423.789 335.099Z" fill="#2F2E41"/>
<path d="M425.084 341.569L449.944 352.438L440.621 374.693L403.849 365.894" fill="#2F2E41"/>
<path d="M488.626 341.569L455.123 357.096L468.07 384.009L505.36 367.965" fill="#2F2E41"/>
<path d="M455.123 240.083L422.753 254.359L433.111 311.291L423.789 335.099L473.509 342.863L499.005 334.957L496.815 323.713L499.005 281.749L507.691 256.947L484.385 240.902L455.123 240.083Z" fill="#E9E9EB"/>
<path d="M446.836 354.508L462.892 359.166L455.123 378.187L433.888 370.035L446.836 354.508Z" fill="#FCD3D3"/>
<path d="M469.149 354.508L449.426 364.342V379.361L471.696 376.763L469.149 354.508Z" fill="#FCD3D3"/>
<path d="M440.621 382.974C440.621 382.974 474.804 405.747 487.751 396.431C500.699 387.115 507.95 375.211 505.361 373.658C502.771 372.105 495.002 369.517 495.002 369.517L451.497 378.316L440.621 382.974Z" fill="#2F2E41"/>
<path d="M397.116 365.894C397.116 365.894 379.507 392.808 396.08 396.948C412.654 401.089 454.419 384.009 454.419 384.009L451.497 361.754L443.729 369.517L397.116 365.894Z" fill="#2F2E41"/>
<path d="M506.864 179.607C502.019 175.132 500.403 169.006 503.254 165.926C506.104 162.845 512.341 163.976 517.186 168.454C519.147 170.216 520.656 172.421 521.588 174.886L541.875 194.106L532.647 203.427L513.627 183.49C511.095 182.754 508.776 181.422 506.864 179.607Z" fill="#FCD3D3"/>
<path d="M501.346 239.205L538.054 221.303L519.065 188.666L525.01 176.597C525.01 176.597 571.223 202.341 566.624 221.073C562.025 239.805 516.188 274.218 501.548 268.716C497.104 267.046 494.53 264.066 493.099 260.724C489.606 252.564 493.365 243.097 501.346 239.205Z" fill="#E9E9EB"/>
<path d="M428.284 230.359C429.399 226.97 431.601 224.004 432.586 220.575C433.894 216.022 436.678 226.122 436.95 221.393C437.466 212.406 451.193 189.286 459.029 184.845C466.865 180.404 471.366 181.743 479.349 185.914C479.349 185.914 483.225 186.16 488.049 188.541C492.874 190.921 497.217 194.733 499.093 199.773C500.581 203.767 500.416 208.154 500.913 212.386C502.298 224.179 508.913 235.394 507.493 247.183C507.05 250.861 505.651 254.664 502.642 256.827C499.633 258.991 494.771 258.755 492.79 255.624C492.114 254.556 491.828 253.288 491.249 252.164C490.67 251.04 489.623 249.993 488.359 250.028C486.458 250.08 485.491 252.629 486.24 254.375C486.99 256.121 488.751 257.176 490.405 258.113C486.466 259.884 481.58 259.333 478.136 256.729C474.692 254.125 472.832 249.577 473.466 245.308C474.359 239.292 483.129 240.537 484.162 234.544C484.914 230.181 487.555 222.88 486.836 218.512C486.117 214.144 482.662 219.433 486.301 216.909C482.297 218.838 473.732 205.641 469.54 204.163C465.348 202.685 461.794 199.484 459.888 195.471C455.442 201.912 451.53 200.163 449.938 207.824C448.346 215.485 450.989 239.117 457.546 243.394C454.922 245.184 451.659 241.516 450.428 244.442C449.73 246.1 449.278 247.914 448.121 249.29C445.91 251.92 441.827 252.08 438.573 250.974C434.538 249.603 431.088 246.592 429.186 242.781C427.284 238.97 426.953 234.405 428.284 230.359H428.284Z" fill="#303133"/>
<path d="M372.2 225.224C371.015 218.738 366.706 214.092 362.576 214.847C358.446 215.601 356.06 221.469 357.246 227.957C357.684 230.555 358.739 233.01 360.321 235.118L365.689 262.534L378.51 259.742L371.857 233.011C372.592 230.48 372.71 227.81 372.2 225.224Z" fill="#FCD3D3"/>
<path d="M425.51 252.504L390.714 273.883L373.316 240.373L359.934 238.922C359.934 238.922 356.92 291.708 375.211 297.865C393.502 304.023 447.139 283.789 450.335 268.489C451.306 263.844 450.167 260.074 448.11 257.077C443.089 249.757 433.075 247.856 425.51 252.504Z" fill="#E9E9EB"/>
<path d="M615.344 292.419L490.705 331.787V180.126L615.344 140.759V292.419Z" fill="white"/>
<path d="M489.866 332.931V179.512L616.183 139.615V293.033L489.866 332.931ZM491.543 180.74V330.643L614.506 291.806V141.902L491.543 180.74Z" fill="#3F3D56"/>
<path d="M310.119 326.063L410.077 357.635V236.006L310.119 204.435V326.063Z" fill="white"/>
<path d="M410.915 358.778L409.824 358.433L309.28 326.677V203.291L310.372 203.636L410.915 235.393V358.778ZM310.957 325.449L409.238 356.491V236.62L310.957 205.579V325.449Z" fill="#3F3D56"/>
<path d="M520.998 189.499C519.574 196.919 522.173 204.987 527.661 210.184C533.149 215.38 541.351 217.539 548.688 215.718C555.655 213.989 562.17 206.628 559.223 200.088C557.121 195.424 550.713 193.66 546.113 195.903C541.514 198.145 538.956 203.535 539.222 208.642C539.487 213.749 542.207 218.497 545.835 222.104C555.299 231.511 570.457 233.95 578.798 244.365C586.082 253.459 585.858 267.732 578.292 276.593C570.726 285.455 556.657 287.922 546.523 282.165C542.347 279.792 538.753 275.986 537.715 271.298C536.678 266.61 538.768 261.112 543.158 259.159C551.435 255.477 559.77 265.368 568.83 265.512C574.019 265.595 579.059 262.009 580.677 257.081C582.295 252.154 580.363 246.28 576.134 243.274" fill="#065F46"/>
<path d="M345.593 295.614C347.195 300.314 343.875 306.045 338.998 306.997C334.122 307.948 328.888 303.886 328.603 298.929C328.318 293.972 333.053 289.338 338.006 289.726C345.986 290.35 350.699 301.266 358.688 300.755C364.154 300.406 367.606 294.819 369.624 289.731C371.947 283.872 373.646 277.766 374.683 271.549C375.548 266.364 375.945 260.995 374.697 255.887C373.449 250.78 370.358 245.931 365.67 243.545C358.55 239.921 348.803 243.456 345.403 250.683C342.003 257.909 345.278 267.457 352.259 271.344C360.989 276.204 373.013 272.704 380.945 278.779C387.301 283.648 388.394 292.627 388.974 300.609C389.344 305.701 389.71 310.871 388.666 315.868C387.623 320.866 384.967 325.756 380.561 328.34C377.224 330.296 372.769 330.684 369.557 328.528C366.346 326.372 365.14 321.382 367.637 318.429C369.682 316.012 373.404 315.627 376.395 316.665C379.387 317.703 381.822 319.879 384.171 322.002" fill="#065F46"/>
<path d="M263.991 48.2575L257.012 74.8494L230.402 69.6182C230.402 69.6182 240.871 50.4372 238.254 41.7185L263.991 48.2575H263.991Z" fill="#FCD3D3"/>
<path d="M235.901 394.402L251.925 394.4L259.548 332.633L235.898 332.635L235.901 394.402Z" fill="#FCD3D3"/>
<path d="M290.802 394.038C291.301 394.878 291.565 397.588 291.565 398.565C291.565 401.567 289.13 404 286.126 404H236.501C234.452 404 232.79 402.34 232.79 400.292V398.227C232.79 398.227 230.335 392.022 235.39 384.374C235.39 384.374 241.671 390.362 251.058 380.982L253.826 375.971L273.863 390.615L284.968 391.981C287.398 392.28 289.552 391.935 290.802 394.038H290.802Z" fill="#303133"/>
<path d="M280.395 215.647L258.315 365.803H230.611L234.295 280.09L236.234 235.022L230.611 213.57C230.611 213.57 228.048 208.801 225.888 203.021C223.454 196.498 221.531 188.678 224.386 184.97C225.436 183.603 228.166 182.591 231.877 181.838C234.144 181.375 236.783 181.015 239.632 180.735C256.015 179.115 279.318 180.127 279.318 180.127L279.911 199.663L280.239 210.572L280.395 215.647Z" fill="#065F46"/>
<path d="M207.674 387.058L223.528 389.386L240.061 329.384L216.662 325.948L207.674 387.058Z" fill="#FCD3D3"/>
<path d="M262.045 394.679C262.416 395.582 262.282 398.302 262.14 399.268C261.703 402.238 258.94 404.292 255.968 403.855L206.87 396.641C204.843 396.344 203.441 394.46 203.739 392.434L204.04 390.391C204.04 390.391 202.514 383.895 208.628 377.062C208.628 377.062 213.971 383.901 224.623 375.985L228.091 371.429L245.783 388.83L256.572 391.796C258.932 392.445 261.114 392.416 262.044 394.679L262.045 394.679H262.045Z" fill="#303133"/>
<path d="M280.743 190.606L277.714 216.67L261.198 271.595L234.009 362.021L206.604 357.996L231.2 229.424L228.764 207.378C228.764 207.378 227.971 205.186 227.062 201.978C225.257 195.631 222.994 185.295 225.484 180.022C225.82 179.305 226.242 178.684 226.765 178.18C227.744 177.231 229.735 176.654 232.402 176.349C243.549 175.09 266.506 178.691 276.721 180.458L280.743 190.606Z" fill="#065F46"/>
<path d="M259.629 67.0025L289.729 104.929L284.326 144.47L279.696 184.704L225.167 176.422C225.167 176.422 236.946 148.086 238.254 146.778C239.563 145.47 242.85 148.7 240.552 144.47C238.254 140.239 235.637 140.239 237.818 138.06C239.999 135.88 220.805 107.544 220.805 92.2867C220.805 77.029 229.966 64.8229 229.966 64.8229L259.629 67.0025L259.629 67.0025Z" fill="#E9E9EB"/>
<path d="M252.607 53.2793C263.805 53.2793 272.883 44.2073 272.883 33.0164C272.883 21.8255 263.805 12.7534 252.607 12.7534C241.408 12.7534 232.33 21.8255 232.33 33.0164C232.33 44.2073 241.408 53.2793 252.607 53.2793Z" fill="#FCD3D3"/>
<path d="M251.659 71.7585C251.659 71.7585 254.693 47.7669 255.23 40.79C255.767 33.813 265.622 22.9201 265.622 22.9201L272.604 28.5553C272.604 28.5553 278.512 28.5553 274.484 19.9683C270.456 11.3813 262.937 10.0396 262.937 10.0396C262.937 10.0396 262.132 -1.23077 248.168 0.11095C234.205 1.45266 228.029 12.7231 228.029 12.7231C228.029 12.7231 227.223 -1.4991 218.362 8.96626C209.501 19.4316 204.399 23.7251 213.797 27.2136C223.196 30.702 230.177 28.0186 230.177 28.0186C230.177 28.0186 221.047 29.897 222.659 36.3372C224.27 42.7774 201.445 72.0268 211.918 75.2469C222.39 78.467 245.752 86.249 248.437 81.1505C251.122 76.0519 251.659 71.7585 251.659 71.7585V71.7585Z" fill="#303133"/>
<path d="M335.244 216.505C339.114 213.292 338.157 205.761 333.105 199.683C330.894 197.023 328.265 195.082 325.683 194.01L322.734 190.55L284.683 142.079C284.683 142.079 263.79 94.0014 257.547 88.7741C251.304 83.5467 243.885 86.179 243.885 86.179L238.055 93.2653L273.454 160.445L309.946 197.765L314.871 202.983C315.452 205.717 316.878 208.656 319.089 211.316C324.141 217.394 331.373 219.717 335.244 216.505H335.244Z" fill="#FCD3D3"/>
<path d="M235.846 82.4525C235.846 82.4525 245.161 130.758 255.76 137.879L276.882 121.42C276.882 121.42 278.731 121.341 275.291 117.458C271.85 113.574 272.731 105.235 272.731 105.235C272.731 105.235 274.279 107.237 270.911 104.458C267.543 101.68 270.678 82.5716 270.678 82.5716L235.846 82.4525L235.846 82.4525Z" fill="#E9E9EB"/>
</svg>
