<svg width="771" height="475" viewBox="0 0 771 475" fill="none" xmlns="http://www.w3.org/2000/svg">
<g filter="url(#filter0_d_8_10)">
<path d="M380.047 181.035C293.159 228.008 188.923 98.5325 72.3224 131.989C-46.0789 165.445 16.4982 282.889 72.3224 353.181C128.147 423.473 324.248 411.095 449.403 456.379C574.557 501.663 699.803 375.713 743.563 315.153C799.488 237.756 743.563 120.648 656.225 98.5325C599.2 84.0924 466.935 134.061 380.047 181.035Z" fill="#1A3045" fill-opacity="0.2" shape-rendering="crispEdges"/>
<path d="M380.047 181.035C293.159 228.008 188.923 98.5325 72.3224 131.989C-46.0789 165.445 16.4982 282.889 72.3224 353.181C128.147 423.473 324.248 411.095 449.403 456.379C574.557 501.663 699.803 375.713 743.563 315.153C799.488 237.756 743.563 120.648 656.225 98.5325C599.2 84.0924 466.935 134.061 380.047 181.035Z" stroke="black" shape-rendering="crispEdges"/>
</g>
<path d="M211.97 326.952C211.673 326.044 209.423 326.443 209.206 325.631C208.991 324.822 211.151 324.143 212.807 321.863C213.106 321.451 214.988 318.859 214.266 317.769C212.898 315.703 203.377 320.849 201.092 317.961C200.59 317.328 200.384 316.239 198.889 314.214C198.295 313.409 197.914 313.02 197.458 313.031C196.811 313.048 196.58 313.856 195.564 315.32C194.04 317.516 193.49 317.24 192.486 319.039C191.741 320.375 191.653 321.228 191.115 321.279C190.355 321.35 190.041 319.687 189.111 319.622C188.163 319.557 187.214 321.2 186.744 322.483C185.861 324.892 186.408 326.733 186.529 328.568C186.661 330.563 186.351 333.482 184.183 337.228L163.733 369.789C168.125 363.151 180.592 345.05 185.615 338.411C187.065 336.495 188.623 334.57 191.021 334.208C193.33 333.859 196.14 335.001 200.061 334.935C200.519 334.927 201.794 334.889 202.104 334.214C202.36 333.656 201.724 333.17 201.955 332.646C202.266 331.942 203.663 332.244 205.567 331.777C206.91 331.447 207.822 330.903 208.606 330.434C208.843 330.293 212.366 328.161 211.97 326.952H211.97Z" fill="#EBEDF0"/>
<path d="M158.407 334.554C157.875 334.437 157.422 335.657 156.961 335.528C156.501 335.4 156.791 334.145 156.149 332.675C156.033 332.41 155.303 330.739 154.56 330.778C153.15 330.853 152.93 337.008 150.853 337.296C150.397 337.359 149.803 337.146 148.377 337.294C147.81 337.354 147.509 337.428 147.383 337.655C147.204 337.977 147.535 338.324 147.961 339.245C148.599 340.626 148.305 340.816 148.899 341.827C149.34 342.578 149.734 342.868 149.603 343.146C149.419 343.539 148.512 343.214 148.212 343.651C147.906 344.097 148.439 345.036 148.934 345.637C149.862 346.765 150.924 347.029 151.86 347.499C152.878 348.009 154.222 349.003 155.437 351.148L165.528 370.573C163.535 366.503 158.242 355.166 156.431 350.787C155.908 349.523 155.412 348.203 155.926 346.922C156.421 345.689 157.793 344.641 158.892 342.698C159.02 342.471 159.369 341.835 159.127 341.488C158.927 341.202 158.505 341.374 158.314 341.109C158.058 340.753 158.609 340.155 158.929 339.086C159.155 338.333 159.15 337.728 159.147 337.209C159.146 337.052 159.115 334.709 158.407 334.554V334.554L158.407 334.554Z" fill="#EBEDF0"/>
<path d="M168.474 339.293L168.791 336.367L168.986 336.183C169.886 335.333 170.449 334.432 170.66 333.505C170.694 333.358 170.72 333.209 170.746 333.057C170.852 332.456 170.983 331.708 171.561 330.931C171.885 330.498 172.742 329.519 173.626 329.861C173.865 329.95 174.026 330.105 174.138 330.269C174.166 330.24 174.195 330.212 174.225 330.181C174.607 329.811 174.874 329.675 175.132 329.544C175.329 329.443 175.533 329.34 175.879 329.064C176.03 328.942 176.152 328.834 176.254 328.742C176.564 328.465 176.961 328.141 177.504 328.27C178.08 328.427 178.278 328.976 178.409 329.339C178.643 329.988 178.715 330.434 178.763 330.73C178.78 330.838 178.8 330.959 178.815 330.999C178.941 331.316 180.524 331.398 181.119 331.433C182.458 331.505 183.616 331.568 183.894 332.484C184.094 333.139 183.678 333.854 182.621 334.665C182.291 334.917 181.962 335.091 181.675 335.221C181.852 335.388 181.992 335.614 182.001 335.923C182.02 336.654 181.27 337.215 179.772 337.593C179.399 337.688 178.898 337.814 178.243 337.782C177.934 337.767 177.664 337.719 177.433 337.675C177.399 337.806 177.336 337.943 177.222 338.072C176.889 338.454 176.35 338.551 175.619 338.336C174.812 338.111 174.174 337.805 173.611 337.537C173.12 337.303 172.696 337.103 172.34 337.048C171.679 336.956 171.062 337.364 170.324 337.907L168.474 339.293H168.474L168.474 339.293Z" fill="#EBEDF0"/>
<path d="M173.753 322.625L170.84 323.06L170.613 322.919C169.561 322.264 168.547 321.949 167.596 321.98C167.445 321.984 167.294 321.997 167.14 322.01C166.531 322.061 165.774 322.124 164.875 321.761C164.374 321.558 163.21 320.978 163.316 320.037C163.342 319.783 163.451 319.589 163.581 319.439C163.546 319.419 163.512 319.398 163.474 319.376C163.018 319.101 162.819 318.878 162.627 318.662C162.48 318.497 162.328 318.326 161.973 318.062C161.817 317.946 161.681 317.856 161.566 317.781C161.22 317.551 160.806 317.25 160.792 316.692C160.798 316.095 161.28 315.765 161.598 315.546C162.166 315.155 162.58 314.973 162.854 314.852C162.954 314.808 163.067 314.757 163.101 314.733C163.377 314.53 163.055 312.98 162.937 312.395C162.668 311.083 162.435 309.947 163.251 309.446C163.834 309.086 164.632 309.308 165.685 310.124C166.012 310.378 166.264 310.652 166.463 310.897C166.579 310.684 166.763 310.491 167.06 310.404C167.762 310.2 168.495 310.783 169.241 312.135C169.428 312.471 169.677 312.923 169.812 313.565C169.876 313.867 169.898 314.141 169.914 314.375C170.05 314.375 170.198 314.401 170.352 314.478C170.806 314.704 171.037 315.2 171.014 315.961C171.001 316.798 170.867 317.492 170.75 318.104C170.648 318.639 170.562 319.099 170.599 319.457C170.677 320.12 171.229 320.613 171.942 321.188L173.753 322.625H173.753L173.753 322.625Z" fill="#EBEDF0"/>
<path d="M174.146 313.882L174.463 310.956L174.658 310.772C175.558 309.922 176.121 309.021 176.332 308.094C176.366 307.947 176.392 307.798 176.418 307.646C176.524 307.044 176.654 306.296 177.233 305.519C177.557 305.087 178.414 304.108 179.298 304.45C179.537 304.539 179.698 304.694 179.81 304.858C179.838 304.829 179.867 304.801 179.897 304.77C180.279 304.399 180.546 304.264 180.803 304.133C181.001 304.032 181.205 303.929 181.551 303.652C181.702 303.531 181.824 303.422 181.926 303.331C182.236 303.054 182.633 302.73 183.176 302.858C183.752 303.016 183.95 303.565 184.081 303.928C184.315 304.577 184.387 305.023 184.434 305.318C184.452 305.426 184.472 305.548 184.487 305.588C184.613 305.905 186.195 305.987 186.791 306.022C188.13 306.094 189.288 306.157 189.566 307.073C189.766 307.728 189.35 308.443 188.293 309.254C187.963 309.506 187.634 309.68 187.347 309.81C187.524 309.977 187.664 310.203 187.673 310.512C187.692 311.243 186.942 311.804 185.444 312.182C185.071 312.277 184.57 312.402 183.915 312.371C183.606 312.355 183.336 312.308 183.105 312.264C183.071 312.395 183.008 312.532 182.894 312.661C182.561 313.043 182.022 313.14 181.291 312.925C180.484 312.7 179.846 312.394 179.283 312.126C178.792 311.892 178.368 311.691 178.012 311.637C177.351 311.544 176.734 311.953 175.996 312.496L174.146 313.882H174.146H174.146Z" fill="#EBEDF0"/>
<path d="M164.7 369.955L164.185 369.447L164.194 368.724L164.185 369.447L163.469 369.371C163.472 369.304 163.467 369.146 163.462 368.901C163.435 367.554 163.349 363.457 163.92 357.162C164.319 352.767 164.985 348.306 165.9 343.901C166.817 339.488 167.768 336.205 168.532 333.567C169.109 331.576 169.691 329.689 170.259 327.85C171.776 322.937 173.208 318.297 174.094 313.004C174.293 311.822 174.705 309.363 173.861 306.46C173.372 304.776 172.533 303.191 171.369 301.751L172.496 300.841C173.781 302.433 174.708 304.188 175.251 306.058C176.187 309.276 175.738 311.956 175.522 313.244C174.62 318.631 173.174 323.316 171.642 328.276C171.077 330.108 170.497 331.987 169.923 333.969C169.165 336.583 168.222 339.838 167.318 344.193C166.413 348.546 165.755 352.953 165.361 357.292C164.798 363.508 164.882 367.544 164.91 368.87C164.924 369.578 164.927 369.727 164.7 369.955L164.7 369.955Z" fill="#EBEDF0"/>
<path d="M168.278 303.416C168.22 303.403 168.162 303.389 168.103 303.372C166.915 303.039 165.961 302.071 165.269 300.495C164.945 299.754 164.868 298.975 164.716 297.42C164.692 297.18 164.586 295.967 164.716 294.359C164.801 293.308 164.914 292.886 165.2 292.555C165.517 292.186 165.945 291.974 166.398 291.868C166.41 291.729 166.456 291.593 166.546 291.464C166.918 290.929 167.541 291.149 167.879 291.263C168.049 291.324 168.261 291.402 168.5 291.442C168.875 291.507 169.099 291.441 169.438 291.343C169.763 291.249 170.166 291.132 170.723 291.142C171.824 291.157 172.638 291.651 172.907 291.814C174.321 292.663 174.809 294.018 175.374 295.587C175.487 295.901 175.859 297.038 175.946 298.502C176.009 299.557 175.87 299.99 175.711 300.299C175.387 300.934 174.891 301.229 173.658 301.848C172.371 302.498 171.725 302.823 171.195 302.99C169.962 303.376 169.188 303.619 168.278 303.416V303.416Z" fill="#EBEDF0"/>
<path d="M331.798 214.495C335.641 211.251 334.621 203.728 329.518 197.692C327.285 195.05 324.64 193.132 322.049 192.081L319.071 188.647L280.615 140.495C280.615 140.495 259.319 92.5948 253.032 87.4199C246.746 82.245 239.35 84.9392 239.35 84.9392L233.579 92.0742L269.54 158.955L306.344 195.968L311.312 201.145C311.916 203.873 313.367 206.8 315.601 209.442C320.703 215.478 327.954 217.74 331.798 214.495Z" fill="#FCD3D3"/>
<path d="M259.207 96.3262L268.844 110.45L282.679 130.912L257.82 139.505L235.872 101.869L259.207 96.3262Z" fill="#E9E9EB"/>
<path d="M653 368.653H103V370.329H653V368.653Z" fill="#3F3D56"/>
<path d="M492.371 252.179H448.521V237.299C448.521 213.363 467.967 193.93 491.919 193.93H492.371V252.179Z" fill="#2F2E41"/>
<path d="M458.293 244.386L465.561 220.615L484.206 219.682L492.371 252.179L458.293 244.386Z" fill="#FCD3D3"/>
<path opacity="0.1" d="M458.293 244.386L465.561 220.615L484.206 219.682L492.371 252.179L458.293 244.386Z" fill="black"/>
<path d="M475.258 234.544C487.367 234.544 497.183 224.734 497.183 212.634C497.183 200.533 487.367 190.724 475.258 190.724C463.15 190.724 453.333 200.533 453.333 212.634C453.333 224.734 463.15 234.544 475.258 234.544Z" fill="#FCD3D3"/>
<path d="M428.789 335.099L422.986 340.898C422.986 340.898 391.978 320.114 380.085 327.865C368.193 335.617 367.675 350.626 381.658 358.907C395.642 367.188 431.378 387.373 431.378 387.373C431.378 387.373 479.027 395.654 511.137 370.294C543.248 344.933 549.204 346.227 543.507 332.77C537.81 319.313 525.38 322.419 525.38 322.419L501.556 336.393L491.716 334.323L428.789 335.099Z" fill="#2F2E41"/>
<path d="M430.084 341.569L454.944 352.438L445.621 374.693L408.849 365.894" fill="#2F2E41"/>
<path d="M493.626 341.569L460.123 357.096L473.07 384.009L510.36 367.965" fill="#2F2E41"/>
<path d="M460.123 240.083L427.753 254.359L438.111 311.291L428.789 335.099L478.509 342.863L504.005 334.957L501.815 323.713L504.005 281.749L512.691 256.947L489.385 240.902L460.123 240.083Z" fill="#E9E9EB"/>
<path d="M451.836 354.508L467.892 359.166L460.123 378.188L438.888 370.035L451.836 354.508Z" fill="#FCD3D3"/>
<path d="M474.149 354.508L454.426 364.342V379.361L476.696 376.763L474.149 354.508Z" fill="#FCD3D3"/>
<path d="M445.621 382.974C445.621 382.974 479.804 405.747 492.751 396.431C505.699 387.115 512.95 375.211 510.361 373.658C507.771 372.105 500.002 369.517 500.002 369.517L456.497 378.316L445.621 382.974Z" fill="#2F2E41"/>
<path d="M402.116 365.894C402.116 365.894 384.507 392.808 401.08 396.948C417.654 401.089 459.419 384.009 459.419 384.009L456.497 361.754L448.729 369.517L402.116 365.894Z" fill="#2F2E41"/>
<path d="M511.864 179.607C507.019 175.132 505.403 169.006 508.254 165.926C511.104 162.845 517.341 163.976 522.186 168.454C524.147 170.216 525.656 172.421 526.588 174.886L546.875 194.106L537.647 203.427L518.627 183.49C516.095 182.754 513.776 181.422 511.864 179.607Z" fill="#FCD3D3"/>
<path d="M506.346 239.205L543.054 221.303L524.065 188.666L530.01 176.597C530.01 176.597 576.223 202.341 571.624 221.073C567.025 239.805 521.188 274.218 506.548 268.716C502.104 267.046 499.53 264.066 498.099 260.724C494.606 252.564 498.365 243.097 506.346 239.205Z" fill="#E9E9EB"/>
<path d="M433.284 230.359C434.399 226.97 436.601 224.004 437.586 220.575C438.894 216.022 441.678 226.122 441.95 221.393C442.466 212.406 456.193 189.286 464.029 184.845C471.865 180.404 476.366 181.743 484.349 185.914C484.349 185.914 488.225 186.16 493.049 188.541C497.874 190.921 502.217 194.733 504.093 199.773C505.581 203.767 505.416 208.154 505.913 212.386C507.298 224.179 513.913 235.394 512.493 247.183C512.05 250.861 510.651 254.664 507.642 256.827C504.633 258.991 499.771 258.755 497.79 255.624C497.114 254.556 496.828 253.288 496.249 252.164C495.67 251.04 494.623 249.993 493.359 250.028C491.458 250.08 490.491 252.629 491.24 254.375C491.99 256.121 493.751 257.176 495.405 258.113C491.466 259.884 486.58 259.333 483.136 256.729C479.692 254.125 477.832 249.577 478.466 245.308C479.359 239.292 488.129 240.537 489.162 234.544C489.914 230.181 492.555 222.88 491.836 218.512C491.117 214.144 487.662 219.433 491.301 216.909C487.297 218.838 478.732 205.641 474.54 204.163C470.348 202.685 466.794 199.484 464.888 195.471C460.442 201.912 456.53 200.163 454.938 207.824C453.346 215.485 455.989 239.117 462.546 243.394C459.922 245.184 456.659 241.516 455.428 244.442C454.73 246.1 454.278 247.914 453.121 249.29C450.91 251.92 446.827 252.08 443.573 250.974C439.538 249.603 436.088 246.592 434.186 242.781C432.284 238.97 431.953 234.405 433.284 230.359H433.284Z" fill="#303133"/>
<path d="M377.2 225.224C376.015 218.738 371.706 214.092 367.576 214.847C363.446 215.601 361.06 221.469 362.246 227.957C362.684 230.555 363.739 233.01 365.321 235.118L370.689 262.534L383.51 259.742L376.857 233.011C377.592 230.48 377.71 227.81 377.2 225.224Z" fill="#FCD3D3"/>
<path d="M430.51 252.504L395.714 273.883L378.316 240.373L364.934 238.922C364.934 238.922 361.92 291.708 380.211 297.865C398.502 304.023 452.139 283.789 455.335 268.489C456.306 263.844 455.167 260.074 453.11 257.077C448.089 249.757 438.075 247.856 430.51 252.504Z" fill="#E9E9EB"/>
<path d="M620.344 292.419L495.705 331.787V180.126L620.344 140.759V292.419Z" fill="white"/>
<path d="M494.866 332.931V179.512L621.183 139.615V293.033L494.866 332.931ZM496.543 180.74V330.643L619.506 291.806V141.902L496.543 180.74Z" fill="#3F3D56"/>
<path d="M315.119 326.063L415.077 357.635V236.006L315.119 204.435V326.063Z" fill="white"/>
<path d="M415.915 358.778L414.824 358.433L314.28 326.677V203.291L315.372 203.636L415.915 235.393V358.778ZM315.957 325.449L414.238 356.491V236.62L315.957 205.579V325.449Z" fill="#3F3D56"/>
<path d="M525.998 189.499C524.574 196.919 527.173 204.987 532.661 210.184C538.149 215.38 546.351 217.539 553.688 215.718C560.655 213.989 567.17 206.628 564.223 200.088C562.121 195.424 555.713 193.66 551.113 195.903C546.514 198.145 543.956 203.535 544.222 208.642C544.487 213.749 547.207 218.497 550.835 222.104C560.299 231.511 575.457 233.95 583.798 244.365C591.082 253.459 590.858 267.732 583.292 276.593C575.726 285.455 561.657 287.922 551.523 282.165C547.347 279.792 543.753 275.986 542.715 271.298C541.678 266.61 543.768 261.112 548.158 259.159C556.435 255.477 564.77 265.368 573.83 265.512C579.019 265.595 584.059 262.009 585.677 257.081C587.295 252.154 585.363 246.28 581.134 243.274" fill="#1A3045"/>
<path d="M350.593 295.614C352.195 300.314 348.875 306.045 343.998 306.997C339.122 307.948 333.888 303.886 333.603 298.929C333.318 293.972 338.053 289.338 343.006 289.726C350.986 290.35 355.699 301.266 363.688 300.755C369.154 300.406 372.606 294.819 374.624 289.731C376.947 283.872 378.646 277.766 379.683 271.549C380.548 266.364 380.945 260.995 379.697 255.887C378.449 250.78 375.358 245.931 370.67 243.545C363.55 239.921 353.803 243.456 350.403 250.683C347.003 257.909 350.278 267.457 357.259 271.344C365.989 276.204 378.013 272.704 385.945 278.779C392.301 283.648 393.394 292.627 393.974 300.609C394.344 305.701 394.71 310.871 393.666 315.868C392.623 320.866 389.967 325.756 385.561 328.34C382.224 330.296 377.769 330.684 374.557 328.528C371.346 326.372 370.14 321.382 372.637 318.429C374.682 316.012 378.404 315.627 381.395 316.665C384.387 317.703 386.822 319.879 389.171 322.002" fill="#1A3045"/>
<path d="M268.991 48.2575L262.012 74.8494L235.402 69.6182C235.402 69.6182 245.871 50.4372 243.254 41.7185L268.991 48.2575H268.991Z" fill="#FCD3D3"/>
<path d="M240.901 394.402L256.925 394.4L264.548 332.633L240.898 332.635L240.901 394.402Z" fill="#FCD3D3"/>
<path d="M295.802 394.038C296.301 394.878 296.565 397.588 296.565 398.565C296.565 401.567 294.13 404 291.126 404H241.501C239.452 404 237.79 402.34 237.79 400.292V398.227C237.79 398.227 235.335 392.022 240.39 384.374C240.39 384.374 246.671 390.362 256.058 380.982L258.826 375.971L278.863 390.615L289.968 391.981C292.398 392.28 294.552 391.935 295.802 394.038H295.802Z" fill="#303133"/>
<path d="M285.395 215.647L263.315 365.803H235.611L239.295 280.09L241.234 235.022L235.611 213.57C235.611 213.57 233.048 208.801 230.888 203.021C228.454 196.498 226.531 188.678 229.386 184.97C230.436 183.603 233.166 182.591 236.877 181.838C239.144 181.375 241.783 181.015 244.632 180.735C261.015 179.115 284.318 180.127 284.318 180.127L284.911 199.663L285.239 210.572L285.395 215.647Z" fill="#1A3045"/>
<path d="M212.674 387.058L228.528 389.386L245.061 329.384L221.662 325.948L212.674 387.058Z" fill="#FCD3D3"/>
<path d="M267.045 394.679C267.416 395.582 267.282 398.302 267.14 399.268C266.703 402.238 263.94 404.292 260.968 403.855L211.87 396.641C209.843 396.344 208.441 394.46 208.739 392.434L209.04 390.391C209.04 390.391 207.514 383.895 213.628 377.062C213.628 377.062 218.971 383.901 229.623 375.985L233.091 371.429L250.783 388.83L261.572 391.796C263.932 392.445 266.114 392.416 267.044 394.679L267.045 394.679H267.045Z" fill="#303133"/>
<path d="M285.743 190.606L282.714 216.67L266.198 271.595L239.009 362.021L211.604 357.996L236.2 229.424L233.764 207.378C233.764 207.378 232.971 205.186 232.062 201.978C230.257 195.631 227.994 185.295 230.484 180.022C230.82 179.305 231.242 178.684 231.765 178.18C232.744 177.231 234.735 176.654 237.402 176.349C248.549 175.09 271.506 178.691 281.721 180.458L285.743 190.606Z" fill="#1A3045"/>
<path d="M264.629 67.0025L294.729 104.929L289.326 144.47L284.696 184.704L230.167 176.422C230.167 176.422 241.946 148.086 243.254 146.778C244.563 145.47 247.85 148.7 245.552 144.47C243.254 140.239 240.637 140.239 242.818 138.06C244.999 135.88 225.805 107.544 225.805 92.2867C225.805 77.029 234.966 64.8229 234.966 64.8229L264.629 67.0025L264.629 67.0025Z" fill="#E9E9EB"/>
<path d="M257.607 53.2793C268.805 53.2793 277.883 44.2073 277.883 33.0164C277.883 21.8255 268.805 12.7534 257.607 12.7534C246.408 12.7534 237.33 21.8255 237.33 33.0164C237.33 44.2073 246.408 53.2793 257.607 53.2793Z" fill="#FCD3D3"/>
<path d="M256.659 71.7585C256.659 71.7585 259.693 47.7669 260.23 40.79C260.767 33.813 270.622 22.9201 270.622 22.9201L277.604 28.5553C277.604 28.5553 283.512 28.5553 279.484 19.9683C275.456 11.3813 267.937 10.0396 267.937 10.0396C267.937 10.0396 267.132 -1.23077 253.168 0.11095C239.205 1.45266 233.029 12.7231 233.029 12.7231C233.029 12.7231 232.223 -1.4991 223.362 8.96626C214.501 19.4316 209.399 23.7251 218.797 27.2136C228.196 30.702 235.177 28.0186 235.177 28.0186C235.177 28.0186 226.047 29.897 227.659 36.3372C229.27 42.7774 206.445 72.0268 216.918 75.2469C227.39 78.467 250.752 86.249 253.437 81.1505C256.122 76.0519 256.659 71.7585 256.659 71.7585V71.7585Z" fill="#303133"/>
<path d="M340.244 216.505C344.114 213.292 343.157 205.761 338.105 199.683C335.894 197.023 333.265 195.082 330.683 194.01L327.734 190.55L289.683 142.079C289.683 142.079 268.79 94.0014 262.547 88.7741C256.304 83.5467 248.885 86.179 248.885 86.179L243.055 93.2653L278.454 160.445L314.946 197.765L319.871 202.983C320.452 205.717 321.878 208.656 324.089 211.316C329.141 217.394 336.373 219.717 340.244 216.505H340.244Z" fill="#FCD3D3"/>
<path d="M240.846 82.4525C240.846 82.4525 250.161 130.758 260.76 137.879L281.882 121.42C281.882 121.42 283.731 121.341 280.291 117.458C276.85 113.574 277.731 105.235 277.731 105.235C277.731 105.235 279.279 107.237 275.911 104.458C272.543 101.68 275.678 82.5716 275.678 82.5716L240.846 82.4525L240.846 82.4525Z" fill="#E9E9EB"/>
<defs>
<filter id="filter0_d_8_10" x="0.5" y="95.5" width="770" height="379" filterUnits="userSpaceOnUse" color-interpolation-filters="sRGB">
<feFlood flood-opacity="0" result="BackgroundImageFix"/>
<feColorMatrix in="SourceAlpha" type="matrix" values="0 0 0 0 0 0 0 0 0 0 0 0 0 0 0 0 0 0 127 0" result="hardAlpha"/>
<feOffset dy="4"/>
<feGaussianBlur stdDeviation="2"/>
<feComposite in2="hardAlpha" operator="out"/>
<feColorMatrix type="matrix" values="0 0 0 0 0 0 0 0 0 0 0 0 0 0 0 0 0 0 0.25 0"/>
<feBlend mode="normal" in2="BackgroundImageFix" result="effect1_dropShadow_8_10"/>
<feBlend mode="normal" in="SourceGraphic" in2="effect1_dropShadow_8_10" result="shape"/>
</filter>
</defs>
</svg>
